<svg width="123" height="46" viewBox="0 0 123 46" fill="none" xmlns="http://www.w3.org/2000/svg">
<g clip-path="url(#clip0_1_341)">
<path fill-rule="evenodd" clip-rule="evenodd" d="M20.4694 3.79401L34.2227 11.521L20.4709 19.2472L6.71762 11.5202L20.4694 3.79401ZM0 11.5011L0.000688739 11.5008V11.5L20.4694 0L20.4701 0.000383742L20.4709 0L23.8127 1.87755L37.5998 9.62358L40.9416 11.5011L40.9383 11.5031V34.5L20.4694 46L0.000688739 34.5V11.5015L0 11.5011ZM37.5618 32.603V13.4001L23.8127 21.1248L20.4709 23.0023L17.1289 21.1248L3.37716 13.3986V32.603L9.66471 36.1355V24.7862L20.4709 30.8575L31.2741 24.7878V28.5064V36.1355L37.5618 32.603ZM27.8977 38.0326V30.4035L23.8127 32.6985L20.4709 34.576L17.129 32.6985L13.0412 30.4019V38.0326L20.4694 42.2059L27.8977 38.0326Z" fill="#1271FF"/>
</g>
<path d="M54.4414 32.0002L57.7054 15.2002H60.1294L64.2214 25.9642L68.3134 15.2002H70.7374L74.0014 32.0002H71.0134L68.9974 21.6082L65.2174 31.6162H63.2134L59.4334 21.6082L57.4294 32.0002H54.4414Z" fill="white"/>
<path d="M78.8258 32.0002V15.2002H84.9458C85.8338 15.2002 86.6338 15.3842 87.3458 15.7522C88.0658 16.1122 88.6338 16.6322 89.0498 17.3122C89.4738 17.9842 89.6858 18.7802 89.6858 19.7002C89.6858 20.1082 89.6258 20.5202 89.5058 20.9362C89.3858 21.3522 89.2018 21.7282 88.9538 22.0642C88.7058 22.3922 88.3858 22.6362 87.9938 22.7962C88.5138 22.9242 88.9378 23.1562 89.2658 23.4922C89.5938 23.8282 89.8498 24.2242 90.0338 24.6802C90.2178 25.1282 90.3418 25.5882 90.4058 26.0602C90.4778 26.5242 90.5138 26.9562 90.5138 27.3562C90.5138 28.2442 90.2938 29.0362 89.8538 29.7322C89.4138 30.4282 88.8218 30.9802 88.0778 31.3882C87.3418 31.7962 86.5258 32.0002 85.6298 32.0002H78.8258ZM81.7538 29.4922H85.3298C85.8098 29.4922 86.2418 29.3762 86.6258 29.1442C87.0098 28.9122 87.3178 28.5922 87.5498 28.1842C87.7818 27.7762 87.8978 27.3122 87.8978 26.7922C87.8978 26.3442 87.7818 25.9202 87.5498 25.5202C87.3178 25.1202 87.0098 24.7962 86.6258 24.5482C86.2418 24.3002 85.8098 24.1762 85.3298 24.1762H81.7538V29.4922ZM81.7538 21.7042H84.6098C85.2018 21.7042 85.7058 21.5202 86.1218 21.1522C86.5458 20.7842 86.7578 20.2962 86.7578 19.6882C86.7578 19.0402 86.5458 18.5522 86.1218 18.2242C85.7058 17.8882 85.2018 17.7202 84.6098 17.7202H81.7538V21.7042Z" fill="white"/>
<path d="M94.843 32.0002V15.2002H97.771V29.0722H104.767V32.0002H94.843Z" fill="white"/>
<path d="M122.081 32.0002H118.265L113.549 25.4122L112.733 26.3842V32.0002H109.805V15.2002H112.733V21.8362L118.289 15.2002H122.117L115.457 23.1202L122.081 32.0002Z" fill="white"/>
<defs>
<clipPath id="clip0_1_341">
<rect width="41" height="46" fill="white"/>
</clipPath>
</defs>
</svg>
